HIERARCHY
ROOT Hips
{
	OFFSET 0.000000 0.000000 0.000000 
	CHANNELS 6 Xposition Yposition Zposition Zrotation Xrotation Yrotation
	JOINT Spine
	{
		OFFSET -0.000000 8.285670 0.000000 
		CHANNELS 3 Zrotation Xrotation Yrotation
		JOINT Spine1
		{
			OFFSET 0.001290 19.616402 0.001621 
			CHANNELS 3 Zrotation Xrotation Yrotation
			JOINT Neck
			{
				OFFSET -0.000000 22.301800 0.000000 
				CHANNELS 3 Zrotation Xrotation Yrotation
				JOINT Head
				{
					OFFSET 0.000021 14.531684 1.875025 
					CHANNELS 3 Zrotation Xrotation Yrotation
					End Site
					{
						OFFSET -0.000000 20.208887 0.000000 
					}
				}
			}
			JOINT LeftShoulder
			{
				OFFSET 3.887530 15.503099 -0.416373 
				CHANNELS 3 Zrotation Xrotation Yrotation
				JOINT LeftArm
				{
					OFFSET 20.767099 0.000000 0.000000 
					CHANNELS 3 Zrotation Xrotation Yrotation
					JOINT LeftForeArm
					{
						OFFSET 26.608500 0.000000 0.000000 
						CHANNELS 3 Zrotation Xrotation Yrotation
						JOINT LeftHand
						{
							OFFSET 23.716986 -0.000831 0.000936 
							CHANNELS 3 Zrotation Xrotation Yrotation
							End Site
							{
								OFFSET 15.156667 0.000000 0.000000 
							}
						}
					}
				}
			}
			JOINT RightShoulder
			{
				OFFSET -4.190880 15.503099 -0.416373 
				CHANNELS 3 Zrotation Xrotation Yrotation
				JOINT RightArm
				{
					OFFSET -20.767099 0.000000 0.000000 
					CHANNELS 3 Zrotation Xrotation Yrotation
					JOINT RightForeArm
					{
						OFFSET -26.608500 0.000000 0.000000 
						CHANNELS 3 Zrotation Xrotation Yrotation
						JOINT RightHand
						{
							OFFSET -25.317501 0.000209 -0.000757 
							CHANNELS 3 Zrotation Xrotation Yrotation
							End Site
							{
								OFFSET -15.156667 0.000000 0.000000 
							}
						}
					}
				}
			}
		}
	}
	JOINT LeftUpLeg
	{
		OFFSET 10.104500 0.000000 0.000000 
		CHANNELS 3 Zrotation Xrotation Yrotation
		JOINT LeftLeg
		{
			OFFSET -0.000000 -50.743301 0.000000 
			CHANNELS 3 Zrotation Xrotation Yrotation
			JOINT LeftFoot
			{
				OFFSET -0.000000 -35.579197 0.000000 
				CHANNELS 3 Zrotation Xrotation Yrotation
				JOINT LeftToeBase
				{
					OFFSET -0.000000 -6.567910 15.156700 
					CHANNELS 3 Zrotation Xrotation Yrotation
					End Site
					{
						OFFSET -0.000000 0.000000 4.041778 
					}
				}
			}
		}
	}
	JOINT RightUpLeg
	{
		OFFSET -10.104500 0.000000 0.000000 
		CHANNELS 3 Zrotation Xrotation Yrotation
		JOINT RightLeg
		{
			OFFSET -0.000000 -50.743301 0.000000 
			CHANNELS 3 Zrotation Xrotation Yrotation
			JOINT RightFoot
			{
				OFFSET -0.000000 -35.579197 0.000000 
				CHANNELS 3 Zrotation Xrotation Yrotation
				JOINT RightToeBase
				{
					OFFSET -0.000000 -6.567910 15.156700 
					CHANNELS 3 Zrotation Xrotation Yrotation
					End Site
					{
						OFFSET -0.000000 0.000000 4.041778 
					}
				}
			}
		}
	}
}
MOTION
Frames: 10
Frame Time: 0.010000
0.000000 89.994904 0.000000 -0.696291 3.331160 4.654387 -1.988972 -8.124440 -3.143250 2.239625 3.118718 -1.062590 -1.837178 -3.723532 -0.772578 1.264991 0.229496 -1.148069 -3.822122 4.583157 -0.621752 -76.500786 27.384319 -14.084044 6.763165 1.996766 -8.469576 -27.556986 0.110265 9.720766 -8.385630 3.399356 -3.527884 75.992416 26.554874 17.656784 9.633001 -5.896754 2.746130 25.691587 -5.729733 1.751960 5.443804 -5.772865 -7.786795 0.122831 23.924788 -24.402687 21.627335 -18.998121 15.315693 0.000000 0.000000 0.000000 -8.413300 -3.047812 -12.700198 6.449172 10.888409 0.163370 1.668853 -20.814766 -2.772852 0.000000 0.000000 0.000000 
0.002276 89.995285 0.009196 -0.697358 3.333861 4.652810 -1.988997 -8.124407 -3.142764 2.237410 3.113676 -1.062224 -1.831962 -3.719070 -0.771158 1.262990 0.224564 -1.145838 -3.818620 4.582725 -0.623001 -76.505096 27.391499 -14.086845 6.769265 1.991466 -8.456201 -27.561005 0.098873 9.742590 -8.382628 3.399477 -3.523786 75.993561 26.550474 17.653492 9.633678 -5.895463 2.745422 25.686214 -5.730899 1.741277 5.444364 -5.766793 -7.784523 0.122391 23.918873 -24.402067 21.628262 -18.999641 15.315767 0.000000 0.000000 0.000000 -8.412107 -3.044624 -12.697845 6.447389 10.886391 0.159499 1.668853 -20.814766 -2.772852 0.000000 0.000000 0.000000 
0.004553 89.995674 0.018416 -0.698448 3.336567 4.651216 -1.989266 -8.124506 -3.142319 2.235742 3.108644 -1.061931 -1.826310 -3.714836 -0.769780 1.259470 0.220059 -1.143434 -3.815609 4.582538 -0.624333 -76.509209 27.398561 -14.089797 6.775542 1.986206 -8.442725 -27.565273 0.087459 9.764489 -8.379863 3.399768 -3.519514 75.994568 26.545954 17.650280 9.634364 -5.894171 2.744715 25.680925 -5.732090 1.730577 5.444947 -5.760727 -7.782275 0.121967 23.912992 -24.401482 21.629141 -19.001196 15.315779 0.000000 0.000000 0.000000 -8.410885 -3.041418 -12.695238 6.445629 10.884255 0.155271 1.668853 -20.814766 -2.772852 0.000000 0.000000 0.000000 
0.006835 89.996063 0.027650 -0.699546 3.339346 4.649664 -1.989438 -8.124603 -3.141870 2.233921 3.103539 -1.061632 -1.821480 -3.710210 -0.768364 1.257581 0.214986 -1.141235 -3.812525 4.582274 -0.625654 -76.513367 27.405718 -14.092699 6.781703 1.980911 -8.429242 -27.569252 0.076010 9.786533 -8.377074 3.399988 -3.515361 75.995689 26.541574 17.646978 9.634953 -5.892900 2.744064 25.675694 -5.733315 1.719778 5.445529 -5.754738 -7.780105 0.121498 23.907114 -24.400852 21.630070 -19.002735 15.315846 0.000000 0.000000 0.000000 -8.409648 -3.038351 -12.693102 6.443696 10.882383 0.151219 1.668853 -20.814766 -2.772852 0.000000 0.000000 0.000000 
0.009126 89.996452 0.036939 -0.700639 3.342090 4.647991 -1.989532 -8.124809 -3.141389 2.231952 3.098623 -1.061375 -1.816640 -3.705804 -0.766952 1.255730 0.210128 -1.139022 -3.809428 4.581883 -0.626954 -76.517525 27.412889 -14.095548 6.787889 1.975630 -8.415668 -27.573202 0.064539 9.808723 -8.374022 3.400539 -3.511262 75.996361 26.537157 17.644154 9.635612 -5.891603 2.743340 25.670570 -5.734485 1.709041 5.446107 -5.748654 -7.777940 0.121026 23.901215 -24.400356 21.631044 -19.004250 15.315986 0.000000 0.000000 0.000000 -8.408484 -3.035095 -12.690236 6.442171 10.880220 0.146972 1.668853 -20.814766 -2.772852 0.000000 0.000000 0.000000 
0.011407 89.996841 0.046257 -0.701846 3.344856 4.646612 -1.989657 -8.124928 -3.141058 2.230299 3.093499 -1.061043 -1.812169 -3.701038 -0.765491 1.254054 0.204810 -1.136920 -3.806432 4.581700 -0.628243 -76.521759 27.420143 -14.098628 6.794142 1.970319 -8.402003 -27.577103 0.052952 9.831297 -8.371380 3.401180 -3.507234 75.997169 26.532934 17.641396 9.636233 -5.890336 2.742610 25.665659 -5.735706 1.698274 5.446804 -5.742629 -7.775715 0.120568 23.895336 -24.399900 21.632044 -19.005804 15.316133 0.000000 0.000000 0.000000 -8.407108 -3.031949 -12.687959 6.440253 10.878255 0.142785 1.668853 -20.814766 -2.772852 0.000000 0.000000 0.000000 
0.013712 89.997223 0.055630 -0.702988 3.347607 4.645061 -1.989691 -8.125341 -3.140622 2.228359 3.088784 -1.060781 -1.807624 -3.696361 -0.764095 1.252377 0.199439 -1.134800 -3.803454 4.581396 -0.629584 -76.525818 27.427483 -14.101739 6.800367 1.964995 -8.388215 -27.580908 0.041271 9.854131 -8.368565 3.401683 -3.503276 75.997932 26.528759 17.638628 9.636784 -5.889047 2.741902 25.660959 -5.736902 1.687430 5.447357 -5.736568 -7.773487 0.120282 23.889500 -24.399435 21.632973 -19.007353 15.316203 0.000000 0.000000 0.000000 -8.405836 -3.028740 -12.685413 6.438468 10.876291 0.138283 1.668853 -20.814766 -2.772852 0.000000 0.000000 0.000000 
0.016027 89.997604 0.065056 -0.704160 3.350302 4.643600 -1.989642 -8.125596 -3.140206 2.226348 3.083856 -1.060509 -1.803275 -3.691411 -0.762721 1.250929 0.193775 -1.132720 -3.800365 4.581118 -0.631041 -76.530052 27.434683 -14.104815 6.806446 1.959728 -8.374332 -27.584423 0.029518 9.877383 -8.366007 3.401773 -3.499382 75.999184 26.524910 17.635345 9.637117 -5.887783 2.741239 25.656597 -5.738127 1.676474 5.447959 -5.730418 -7.771223 0.119928 23.883633 -24.399118 21.633982 -19.008892 15.316364 0.000000 0.000000 0.000000 -8.404561 -3.025550 -12.683098 6.436663 10.874569 0.134042 1.668853 -20.814766 -2.772852 0.000000 0.000000 0.000000 
0.018348 89.997986 0.074527 -0.705392 3.353047 4.642282 -1.989541 -8.125931 -3.139811 2.224410 3.079040 -1.060249 -1.799202 -3.686737 -0.761321 1.249655 0.188219 -1.130715 -3.797514 4.580772 -0.632362 -76.534111 27.442024 -14.108027 6.812514 1.954495 -8.360250 -27.587770 0.017743 9.901011 -8.363630 3.401636 -3.495699 76.000404 26.521378 17.632111 9.637534 -5.886514 2.740430 25.652534 -5.739326 1.665591 5.448600 -5.724324 -7.768984 0.119604 23.877834 -24.398806 21.635046 -19.010477 15.316569 0.000000 0.000000 0.000000 -8.403223 -3.022421 -12.680615 6.434809 10.872963 0.129577 1.668853 -20.814766 -2.772852 0.000000 0.000000 0.000000 
0.020691 89.998352 0.084084 -0.706573 3.355676 4.640878 -1.989403 -8.126112 -3.139462 2.222385 3.074121 -1.059941 -1.794442 -3.682103 -0.760036 1.246964 0.182705 -1.128556 -3.794644 4.580430 -0.633667 -76.538254 27.449600 -14.111298 6.818694 1.949190 -8.346058 -27.590937 0.005781 9.925094 -8.361173 3.401954 -3.492130 76.001389 26.518026 17.629282 9.637626 -5.885272 2.739778 25.648937 -5.740586 1.654579 5.449100 -5.718070 -7.766614 0.119587 23.872042 -24.398594 21.636013 -19.012135 15.316603 0.000000 0.000000 0.000000 -8.401955 -3.019165 -12.677898 6.433111 10.871347 0.124832 1.668853 -20.814766 -2.772852 0.000000 0.000000 0.000000 
